<?xml version="1.0" encoding="UTF-8" standalone="no"?>
<!-- Created with Inkscape (http://www.inkscape.org/) -->

<svg
   xmlns:dc="http://purl.org/dc/elements/1.1/"
   xmlns:cc="http://creativecommons.org/ns#"
   xmlns:rdf="http://www.w3.org/1999/02/22-rdf-syntax-ns#"
   xmlns:svg="http://www.w3.org/2000/svg"
   xmlns="http://www.w3.org/2000/svg"
   xmlns:sodipodi="http://sodipodi.sourceforge.net/DTD/sodipodi-0.dtd"
   xmlns:inkscape="http://www.inkscape.org/namespaces/inkscape"
   width="640"
   height="480"
   id="svg2403"
   sodipodi:version="0.32"
   inkscape:version="0.48.5 r10040"
   sodipodi:docname="17.svg"
   version="1.0"
   inkscape:output_extension="org.inkscape.output.svg.inkscape"
   inkscape:export-filename="D:\Hiiragi\Documents\hiiragicompany\l-system\17.png"
   inkscape:export-xdpi="72"
   inkscape:export-ydpi="72">
  <sodipodi:namedview
     id="base"
     pagecolor="#ffffff"
     bordercolor="#666666"
     borderopacity="1.0"
     inkscape:pageopacity="0.0"
     inkscape:pageshadow="2"
     inkscape:zoom="0.59895835"
     inkscape:cx="64.055471"
     inkscape:cy="70.757394"
     inkscape:current-layer="svg2403"
     inkscape:document-units="px"
     showgrid="false"
     inkscape:window-width="1920"
     inkscape:window-height="1068"
     inkscape:window-x="0"
     inkscape:window-y="0"
     inkscape:window-maximized="0" />
  <defs
     id="defs2405">
    <inkscape:perspective
       id="perspective2411"
       inkscape:persp3d-origin="320 : 160 : 1"
       inkscape:vp_z="640 : 240 : 1"
       inkscape:vp_y="0 : 1000 : 0"
       inkscape:vp_x="0 : 240 : 1"
       sodipodi:type="inkscape:persp3d" />
  </defs>
  <metadata
     id="metadata2408">
    <rdf:RDF>
      <cc:Work
         rdf:about="">
        <dc:format>image/svg+xml</dc:format>
        <dc:type
           rdf:resource="http://purl.org/dc/dcmitype/StillImage" />
        <dc:title />
      </cc:Work>
    </rdf:RDF>
  </metadata>
  <g
     inkscape:groupmode="layer"
     inkscape:label="Layer 1"
     id="layer1" />
  <path
     style="fill:#d5ffd5;stroke:#005500;stroke-width:3.70338726px;stroke-linecap:butt;stroke-linejoin:miter;stroke-opacity:1"
     d="m -68.48165,-105.91467 25.65782,14.813549 0,29.6271 0,29.6271 -25.65782,-14.81355 0,-29.6271 0,59.2542 0,29.6271 0,29.6271 0,59.254181 25.65782,14.81355 0,29.6271 0,29.62711 -25.65782,-14.81355 0,-29.62711 0,59.25421 0,29.62709 0,29.6271 25.65782,-14.81355 0,-29.62709 25.65783,-14.81355 0,29.62709 25.6577997,14.81355 0,-29.62709 0,-29.6271 -25.6577997,-14.81355 0,-29.62711 25.6577997,-14.81355 0,29.6271 25.6578103,14.81356 0,-29.62711 0,-29.6271 L 8.4917997,86.661459 -17.166,101.47501 -42.82383,86.661459 l -25.65782,-14.81354 25.65782,-14.81354 25.65783,14.81354 0,-29.62709 -25.65783,-14.81355 0,-29.6271001 25.65783,-14.8135499 0,29.6271 25.6577997,14.81355 0,-29.6271001 0,-29.6270999 -25.6577997,-14.81355 0,-29.6271 25.6577997,-14.81355 25.6578103,-14.813549 0,29.627099 -25.6578103,14.81355 25.6578103,14.81355 25.65784,-14.81355 25.65782,14.81355 0,29.6271 0,29.6271 -25.65782,-14.8135501 0,-29.6270999 -25.65784,14.81355 0,29.6271 25.65784,14.81355 0,29.6271 -25.65784,-14.81355 -25.6578103,14.81355 25.6578103,14.81354 25.65784,14.81354 25.65782,-14.81354 0,-29.62709 25.65779,-14.81355 0,29.6271 25.65785,14.81354 0,-29.62709 0,-29.6271 -25.65785,-14.8135501 0,-29.6270999 25.65785,-14.81355 0,29.6271 25.65782,14.8135499 0,-29.6270999 0,-29.6271 -25.65782,-14.81355 -25.65785,14.81355 -25.65779,-14.81355 -25.65782,-14.81355 25.65782,-14.813549 25.65779,14.813549 0,-29.627089 -25.65779,-14.81355 -25.65782,14.81355 -25.65784,-14.81355 25.65784,-14.81355 -25.65784,-14.81354 -25.6578103,14.81354 0,29.6271 -25.6577997,14.81354 -25.65783,-14.81354 -25.65782,-14.81355 25.65782,-14.81355 25.65783,14.81355 0,-29.62709 -51.31565,0 615.78776,-59.2542 -25.6579,14.81355 -25.65785,-14.81355 -256.57818,0 51.31565,0 0,29.6271 0,29.6271 -25.65784,-14.81355 0,-29.6271 -25.65781,14.81355 0,29.6271 -25.65781,14.81354 -25.65784,-14.81354 -25.6578,-14.81355 25.6578,-14.81355 25.65784,14.81355 0,-29.6271 -25.65784,-14.81355 -25.6578,14.81355 -25.65782,-14.81355 0,29.6271 0,29.6271 -51.31564,0 25.65779,14.81354 25.65785,14.81355 25.65782,-14.81355 25.6578,14.81355 0,29.62709 -25.6578,-14.81354 -25.65782,14.81354 25.65782,14.813549 25.6578,14.81355 25.65784,-14.81355 0,-29.627089 25.65781,-14.81355 25.65781,-14.81355 0,29.6271 -25.65781,14.81354 25.65781,14.813549 25.65784,-14.813549 0,-29.62709 25.65782,-14.81355 0,29.6271 25.65779,14.81354 0,-29.62709 0,-29.62709 -25.65779,-14.81355 0,-29.6271 25.65779,-14.81355 25.65785,14.81355 -25.65785,14.81355 25.65785,14.81355 25.65781,-14.81355 0,-29.6271 51.31565,0 -25.65784,14.81355 25.65784,14.81355 25.65781,-14.81355 25.6578,14.81355 0,29.6271 0,29.62709 -25.6578,-14.81355 0,-29.62709 -25.65781,14.81355 0,29.62709 -25.65784,14.81355 -25.65781,-14.81355 25.65781,-14.81355 0,-29.62709 -25.65781,14.81355 -25.65781,14.81354 0,29.6271 25.65781,14.81354 0,29.627099 -25.65781,-14.81355 -25.65785,14.81355 25.65785,14.81355 25.65781,14.81355 25.65781,-14.81355 0,-29.6271 25.65784,-14.813549 25.65781,-14.81354 0,29.627089 -25.65781,14.81355 25.65781,14.81355 25.6578,-14.81355 25.65785,14.81355 0,29.6271 -25.65785,-14.81355 -25.6578,14.81355 25.6578,14.81355 25.65785,14.8135499 25.6579,-14.8135499 25.6577,14.8135499 0,29.6271001 0,29.6271 -25.6577,-14.81355 0,-29.6271 -25.6579,14.81355 0,29.6271 -25.65785,14.81354 -25.6578,-14.81354 -25.65781,-14.81355 25.65781,-14.81355 25.6578,14.81355 0,-29.6271 -25.6578,-14.8135501 -25.65781,14.8135501 -25.65784,-14.8135501 25.65784,-14.8135499 0,-29.6271 -25.65784,14.81355 -25.65781,14.81355 0,29.6271 25.65781,14.81355 0,29.6271 -25.65781,-14.81355 -25.65781,14.81355 25.65781,14.81354 25.65781,14.81354 25.65784,-14.81354 25.65781,14.81354 0,29.627101 -25.65781,-14.81355 -25.65784,14.81355 25.65784,14.81355 25.65781,14.81355 25.6578,-14.81355 0,-29.6271 25.65785,-14.813551 25.6579,-14.81354 0,29.627091 -25.6579,14.81355 25.6579,14.81355 25.6577,-14.81355 25.6578,14.81355 0,29.62711 -25.6578,-14.81356 -25.6577,14.81356 25.6577,14.81355 25.6578,14.81355 25.6579,-14.81355 25.6578,14.81355 0,29.62709 0,29.6271 -25.6578,-14.81355 0,-29.62709 -25.6579,14.81354 0,29.6271 25.6579,14.81355 0,29.62709 0,29.6271 -25.6579,-14.81355 0,-29.62709 -25.6578,14.81354 0,29.6271 -25.6577,14.81355 -25.6579,-14.81355 -25.65785,-14.81355 25.65785,-14.81355 25.6579,14.81355 0,-29.62709 -25.6579,-14.81355 0,-29.6271 25.6579,-14.81355 0,29.6271 25.6577,14.81355 0,-29.6271 0,-29.62709 -25.6577,-14.81355 -25.6579,14.81355 -25.65785,-14.81355 25.65785,-14.81355 0,-29.62711 -25.65785,14.81356 -25.6578,14.81355 0,29.6271 25.6578,14.81354 0,29.6271 0,29.6271 -25.6578,-14.81355 0,-29.6271 -25.65781,14.81355 0,29.6271 25.65781,14.81354 0,29.6271 -25.65781,-14.81355 -25.65784,14.81355 25.65784,14.81355 25.65781,14.81355 25.6578,-14.81355 25.65785,14.81355 0,29.6271 0,29.6271 -25.65785,-14.81355 0,-29.6271 -25.6578,14.81355 0,29.6271 25.6578,14.81354 0,29.6271 0,29.6271 -25.6578,-14.81355 0,-29.6271 -25.65781,14.81355 0,29.6271 -25.65784,14.81355 -25.65781,-14.81355 -25.65781,-14.81355 25.65781,-14.81355 25.65781,14.81355 0,-29.6271 -25.65781,-14.81355 0,-29.62709 25.65781,-14.81355 0,29.6271 25.65784,14.81354 0,-29.62709 0,-29.6271 -25.65784,-14.81355 -25.65781,14.81355 -25.65781,-14.81355 25.65781,-14.81355 0,-29.6271 -25.65781,14.81355 -25.65785,14.81355 0,29.6271 25.65785,14.81355 0,29.6271 0,29.62709 -25.65785,-14.81355 0,-29.62709 -25.65779,14.81355 0,29.62709 -25.65782,14.81355 -25.65784,-14.81355 25.65784,-14.81355 0,-29.62709 -25.65784,14.81355 -25.65781,14.81354 0,29.6271 -25.65781,14.81355 -25.65784,-14.81355 -25.6578,-14.81355 25.6578,-14.81355 25.65784,14.81355 0,-29.62709 -25.65784,-14.81355 -25.6578,14.81355 -25.65782,-14.81355 -25.65785,-14.81355 25.65785,-14.81355 25.65782,14.81355 0,-29.6271 -25.65782,-14.81355 0,-29.6271 25.65782,-14.81355 25.6578,-14.81354 0,29.62709 -25.6578,14.81355 25.6578,14.81355 25.65784,-14.81355 25.65781,14.81355 0,29.6271 -25.65781,-14.81355 -25.65784,14.81355 25.65784,14.81355 25.65781,14.81355 25.65781,-14.81355 0,-29.6271 25.65784,-14.81355 0,29.6271 25.65782,14.81355 0,-29.6271 0,-29.6271 -25.65782,-14.81355 -25.65784,14.81355 -25.65781,-14.81355 -25.65781,-14.81355 25.65781,-14.81354 25.65781,14.81354 0,-29.62709 -25.65781,-14.81355 0,-29.6271 25.65781,-14.81354 0,29.62709 25.65784,14.81355 0,-29.6271 0,-29.62709 -25.65784,-14.81355 0,-29.62711 25.65784,-14.81355 25.65782,-14.81355 0,29.6271 -25.65782,14.81356 25.65782,14.81355 25.65779,-14.81355 25.65785,14.81355 0,29.6271 0,29.62709 -25.65785,-14.81355 0,-29.62709 -25.65779,14.81355 0,29.62709 25.65779,14.81355 0,29.6271 -25.65779,-14.81355 -25.65782,14.81355 25.65782,14.81354 25.65779,14.81355 25.65785,-14.81355 0,-29.62709 25.65781,-14.81355 0,29.6271 25.65781,14.81354 0,-29.62709 0,-29.6271 -25.65781,-14.81355 0,-29.62709 25.65781,-14.81355 0,29.6271 25.65784,14.81354 0,-29.62709 0,-29.6271 -25.65784,-14.81356 -25.65781,14.81356 -25.65781,-14.81356 -25.65785,-14.81355 25.65785,-14.81355 25.65781,14.81355 0,-29.6271 -25.65781,-14.813551 -25.65785,14.813551 -25.65779,-14.813551 25.65779,-14.81354 0,-29.62709 -25.65779,14.81355 -25.65782,14.81354 0,29.627091 -25.65784,14.81355 -25.65781,-14.81355 -25.65781,-14.813551 25.65781,-14.81354 25.65781,14.81354 0,-29.62708 -25.65781,-14.81355 0,-29.6271 25.65781,-14.8135501 25.65784,-14.8135499 0,29.6271 -25.65784,14.81355 25.65784,14.81355 25.65782,-14.81355 0,-29.6271001 25.65779,-14.8135499 0,29.6271 25.65785,14.81355 0,-29.6271001 0,-29.6270999 -25.65785,-14.81355 -25.65779,14.81355 -25.65782,-14.81355 25.65782,-14.81355 0,-29.6271 -25.65782,14.81355 -25.65784,14.81355 0,29.6271 -25.65781,14.81355 -25.65781,-14.81355 25.65781,-14.81355 0,-29.6271 -25.65781,14.81355 -25.65784,14.81355 0,29.6271 25.65784,14.8135499 0,29.6271001 0,29.6271 -25.65784,-14.81355 0,-29.6271 -25.6578,14.81355 0,29.6271 25.6578,14.81354 0,29.627091 -25.6578,-14.813551 -25.65782,14.813551 25.65782,14.81355 25.6578,14.81355 25.65784,-14.81355 25.65781,14.81355 0,29.62711 0,29.6271 -25.65781,-14.81355 0,-29.62711 -25.65784,14.81356 0,29.6271 25.65784,14.81355 0,29.62709 0,29.6271 -25.65784,-14.81355 0,-29.6271 -25.6578,14.81355 0,29.6271 -25.65782,14.81355 -25.65785,-14.81355 -25.65779,-14.81355 25.65779,-14.81355 25.65785,14.81355 0,-29.6271 -25.65785,-14.81354 0,-29.6271 25.65785,-14.81355 0,29.6271 25.65782,14.81355 0,-29.6271 0,-29.62711 -25.65782,-14.81355 -25.65785,14.81355 -25.65779,-14.81355 25.65779,-14.81355 0,-29.627101 -25.65779,14.813551 -25.65782,14.81355 0,29.6271 25.65782,14.81356 0,29.6271 0,29.62709 -25.65782,-14.81354 0,-29.6271 -25.65784,14.81355 0,29.62709 25.65784,14.81355 0,29.6271 -25.65784,-14.81355 -25.6578103,14.81355 25.6578103,14.81355 25.65784,14.81354 25.65782,-14.81354 25.65779,14.81354 0,29.6271 0,29.6271 -25.65779,-14.81355 0,-29.6271 -25.65782,14.81355 0,29.6271 L 34.14961,368.1189 8.4917997,353.30535 -17.166,338.4918 8.4917997,323.67825 34.14961,338.4918 l 0,-29.6271 L 8.4917997,294.05115 -17.166,308.8647 -42.82383,294.05115 -17.166,279.23761 l 0,-29.6271 -25.65783,14.81355 -25.65782,14.81355 0,29.62709 25.65782,14.81355 0,29.6271 -25.65782,-14.81355 0,29.6271 25.65782,14.81355 25.65783,-14.81355 25.6577997,14.81355 0,29.6271 L -17.166,397.746 -42.82383,412.55955 -17.166,427.37309 8.4917997,442.18664 34.14961,427.37309 l 0,-29.62709 25.65784,-14.81355 25.65782,-14.81355 0,29.6271 -25.65782,14.81355 25.65782,14.81354 25.65779,-14.81354 25.65785,14.81354 0,29.6271 -25.65785,-14.81355 -25.65779,14.81355 25.65779,14.81355 25.65785,14.81355 25.65782,-14.81355 25.6578,14.81355 0,29.62709 0,29.6271 -25.6578,-14.81355 0,-29.62709 -25.65782,14.81354 0,29.6271 25.65782,14.81355 0,29.6271 -25.65782,14.81355 0,-29.6271 -25.65785,14.81355 -76.97345,14.81355 25.65784,-14.81355 25.65782,14.81355 0,-29.6271 -25.65782,-14.81355 0,-29.6271 25.65782,-14.81355 0,29.6271 25.65779,14.81355 0,-29.6271 0,-29.62709 -25.65779,-14.81355 -25.65782,14.81355 -25.65784,-14.81355 25.65784,-14.81355 0,-29.6271 -25.65784,14.81355 -25.6578103,14.81355 0,29.6271 25.6578103,14.81354 0,29.6271 0,29.6271 -25.6578103,-14.81355 0,-29.6271 -25.6577997,14.81355 0,29.6271 -25.65783,14.81355 -25.65782,-14.81355 25.65782,-14.81355 0,-29.6271 -25.65782,14.81355 0,-29.6271 0,-29.62709 25.65782,-14.81355 0,29.6271 25.65783,14.81354 0,-29.62709 0,-29.6271 -25.65783,-14.81355 -25.65782,14.81355 0,-29.6271 0,-29.62709 0,207.38968 51.31565,0 25.6577997,-14.81355 179.6047303,14.81355 0,-29.6271 25.65784,-14.81355 0,29.6271 25.65781,14.81355 0,-29.6271 0,-29.6271 -25.65781,-14.81355 0,-29.62709 25.65781,-14.81355 25.65781,-14.81355 0,29.6271 -25.65781,14.81354 25.65781,14.81355 25.65784,-14.81355 0,-29.62709 25.65782,-14.81355 25.65779,-14.81355 0,29.6271 -25.65779,14.81355 25.65779,14.81354 25.65785,-14.81354 25.65781,14.81354 0,29.6271 0,29.6271 -25.65781,-14.81355 0,-29.6271 -25.65785,14.81355 0,29.6271 -25.65779,14.81355 -25.65782,-14.81355 25.65782,-14.81355 0,-29.6271 -25.65782,14.81355 -25.65784,14.81355 0,29.6271 25.65784,14.81355 51.31561,0 25.65785,-14.81355 25.65781,14.81355 25.65781,-14.81355 25.65784,14.81355 0,-29.6271 -25.65784,-14.81355 0,-29.6271 25.65784,-14.81355 25.65781,-14.81354 0,29.62709 -25.65781,14.81355 25.65781,14.81355 25.6578,-14.81355 25.65785,14.81355 0,29.6271 -25.65785,-14.81355 -25.6578,14.81355 25.6578,14.81355 51.31575,0 0,-29.6271 25.6577,-14.81355 0,29.6271 25.6578,14.81355 0,-29.6271 0,-29.6271 -25.6578,-14.81355 -25.6577,14.81355 -25.6579,-14.81355 -25.65785,-14.81355 25.65785,-14.81354 25.6579,14.81354 0,-29.62709 -25.6579,-14.81355 0,-29.6271 25.6579,-14.81355 0,29.6271 25.6577,14.81355 0,-29.6271 0,-29.62709 -25.6577,-14.81355 0,-29.6271 25.6577,-14.81355 25.6578,-14.81355 0,29.6271 -25.6578,14.81355 25.6578,14.81355 25.6579,-14.81355 25.6578,14.81355 0,29.62709 0,29.6271 -25.6578,-14.81355 0,-29.62709 -25.6579,14.81354 0,29.6271 25.6579,14.81355 0,29.6271 -25.6579,-14.81355 -25.6578,14.81355 25.6578,14.81354 25.6579,14.81355 25.6578,-14.81355 0,-29.62709 25.6578,-14.81355 0,29.6271 25.6579,14.81354 0,-29.62709 0,-29.6271 -25.6579,-14.81355 0,-29.62709 25.6579,-14.81355 0,29.62709 25.6578,14.81355 0,-29.62709 0,-29.6271 -25.6578,-14.81355 -25.6579,14.81355 -25.6578,-14.81355 -25.6578,-14.81355 25.6578,-14.81355 25.6578,14.81355 0,-29.6271 -25.6578,-14.81355 0,-29.62709 25.6578,-14.81355 0,29.62709 25.6579,14.81355 0,-29.62709 0,-29.6271 -25.6579,-14.81355 0,-29.62709 25.6579,-14.81355 25.6578,-14.81355 0,29.6271 -25.6578,14.81354 25.6578,14.81355 25.6577,-14.81355 0,-29.62709 25.6579,-14.81355 0,29.6271 0,88.88128 -25.6579,-14.81354 25.6579,-14.81355 0,-29.6271 -25.6579,14.81355 -25.6577,14.81355 0,29.62709 25.6577,14.81355 0,29.6271 -25.6577,-14.81355 -25.6578,14.81355 25.6578,14.81355 25.6577,14.81355 25.6579,-14.81355 0,-29.6271 0,207.38968 0,-118.50838 0,-29.6271 -25.6579,14.81355 0,29.62709 25.6579,14.81355 0,29.6271 0,29.6271 -25.6579,-14.81355 0,-29.6271 -25.6577,14.81355 0,29.6271 25.6577,14.81354 0,29.6271 -25.6577,-14.81355 -25.6578,14.81355 25.6578,14.81355 25.6577,14.81355 25.6579,-14.81355 0,29.6271 -25.6579,14.81355 -51.3155,0 25.6578,-14.81355 -25.6578,-14.81355 -25.6579,14.81355 -25.6578,-14.81355 25.6578,-14.81355 0,-29.6271 -25.6578,14.81355 -25.6578,14.81355 0,29.6271 25.6578,14.81355 128.2891,-488.84712 0,29.6271 -25.6579,14.81356 -25.6577,-14.81356 25.6577,-14.81355 0,-29.6271 -25.6577,14.81355 -25.6578,14.81355 0,29.62711 -25.6579,14.81355 -25.6578,-14.81355 -25.6578,-14.81356 25.6578,-14.81355 25.6578,14.81355 0,-29.6271 -25.6578,-14.81355 -25.6578,14.81355 -25.6579,-14.81355 -25.6578,-14.813551 25.6578,-14.81354 25.6579,14.81354 0,-29.62708 -25.6579,-14.81355 0,-29.6271 25.6579,-14.8135501 25.6578,-14.8135499 0,29.6271 -25.6578,14.81355 25.6578,14.81355 25.6578,-14.81355 25.6579,14.81355 0,29.62709 -25.6579,-14.81354 -25.6578,14.81354 25.6578,14.81354 25.6579,14.813551 25.6578,-14.813551 0,-29.62708 25.6577,-14.81355 0,29.62709 25.6579,14.81354 0,-29.62708 0,-29.6271 -25.6579,-14.81355 -25.6577,14.81355 -25.6578,-14.81355 -25.6579,-14.8135501 0,-29.6270999 -25.6578,-14.81355 25.6578,-14.81355 -51.3156,0 0,29.6271 -25.6579,14.81355 -25.6578,-14.81355 -25.6577,-14.81355 25.6577,-14.81355 25.6578,14.81355 0,-29.6271 -25.6578,-14.81355 -25.6577,14.81355 -25.6579,-14.81355 -25.65785,-14.813549 25.65785,-14.81354 25.6579,14.81354 0,-29.62709 -25.6579,-14.81355 0,-29.62709 25.6579,-14.81355 0,29.6271 25.6577,14.81354 51.3157,0 0,29.6271 -25.6579,-14.81355 -25.6578,14.81355 25.6578,14.81354 25.6579,14.813549"
     id="path2955"
     inkscape:connector-curvature="0"
     sodipodi:nodetypes="ccccccccccccccccccccccccccccccccccccccccccccccccccccccccccccccccccccccccccccccccccccccccccccccccccccccccccccccccccccccccccccccccccccccccccccccccccccccccccccccccccccccccccccccccccccccccccccccccccccccccccccccccccccccccccccccccccccccccccccccccccccccccccccccccccccccccccccccccccccccccccccccccccccccccccccccccccccccccccccccccccccccccccccccccccccccccccccccccccccccccccccccccccccccccccccccccccccccccccccccccccccccccccccccccccccccccccccccccccccccccccccccccccccccccccccccccccccccccccccccccccccccccccccccccccccccccccccccccccccccccccccccccccccccccccccccccccccccccccccccccccccccccccccccccccccccccccccccccccccccccccccccccccccccccccccccccccccccccccccccccccccccccccccccccccccccccccccccccccccccccccccccccccccccccccccccccccccccccccccccccccccccccccccccccccccccccccccccccccccccccccccccccccccccccccccccccccccccccccccccccccccccccccccccccccccccccccccccccccccccccccccccccccccccccccccccccccccccccccccccccccccccccccccccccccccccc" />
  <path
     sodipodi:type="arc"
     style="fill:none;stroke:#000000;stroke-width:0.14500025;stroke-miterlimit:4;stroke-opacity:1;stroke-dasharray:none"
     id="path4487"
     sodipodi:cx="57.182606"
     sodipodi:cy="135.65218"
     sodipodi:rx="47.165215"
     sodipodi:ry="52.173912"
     d="m 104.34782,135.65218 a 47.165215,52.173912 0 1 1 -94.330429,0 47.165215,52.173912 0 1 1 94.330429,0 z"
     transform="matrix(7.5015795,0,0,6.7814276,-86.91643,-714.74554)" />
</svg>
