<?xml version="1.0" encoding="UTF-8" standalone="no"?>
<!-- Created with Inkscape (http://www.inkscape.org/) -->

<svg
   xmlns:dc="http://purl.org/dc/elements/1.1/"
   xmlns:cc="http://creativecommons.org/ns#"
   xmlns:rdf="http://www.w3.org/1999/02/22-rdf-syntax-ns#"
   xmlns:svg="http://www.w3.org/2000/svg"
   xmlns="http://www.w3.org/2000/svg"
   xmlns:sodipodi="http://sodipodi.sourceforge.net/DTD/sodipodi-0.dtd"
   xmlns:inkscape="http://www.inkscape.org/namespaces/inkscape"
   width="744.09448819"
   height="1052.3622047"
   id="svg3768"
   version="1.1"
   inkscape:version="0.48.5 r10040"
   sodipodi:docname="gosper.svg">
  <defs
     id="defs3770" />
  <sodipodi:namedview
     id="base"
     pagecolor="#ffffff"
     bordercolor="#666666"
     borderopacity="1.0"
     inkscape:pageopacity="0.0"
     inkscape:pageshadow="2"
     inkscape:zoom="0.35"
     inkscape:cx="-130.71429"
     inkscape:cy="520"
     inkscape:document-units="px"
     inkscape:current-layer="layer1"
     showgrid="false"
     inkscape:window-width="1558"
     inkscape:window-height="912"
     inkscape:window-x="20"
     inkscape:window-y="20"
     inkscape:window-maximized="0" />
  <metadata
     id="metadata3773">
    <rdf:RDF>
      <cc:Work
         rdf:about="">
        <dc:format>image/svg+xml</dc:format>
        <dc:type
           rdf:resource="http://purl.org/dc/dcmitype/StillImage" />
        <dc:title></dc:title>
      </cc:Work>
    </rdf:RDF>
  </metadata>
  <g
     inkscape:label="Layer 1"
     inkscape:groupmode="layer"
     id="layer1">
    <path
       id="path2971"
       d="m 7.7875,701.13065 29.35109,-16.94585 0,33.89167 29.35102,16.94584 0,-33.89166 0,-33.89167 -29.35102,-16.94583 0,-33.89166 29.35102,-16.94583 29.35103,-16.94583 0,33.89166 -29.35103,16.94583 29.35103,16.94583 29.3511,-16.94583 29.35102,16.94583 0,33.89165 0,33.89167 -29.35102,-16.94582 0,-33.89167 -29.3511,16.94582 0,33.89167 29.3511,16.94584 0,33.89165 -29.3511,-16.94583 -29.35103,16.94583 29.35103,16.94583 29.3511,16.94583 29.35102,-16.94583 0,-33.89166 29.35103,-16.94582 0,33.89165 29.35106,16.94583 0,-33.89166 0,-33.89166 -29.35106,-16.94582 0,-33.89167 29.35106,-16.94583 0,33.89165 29.35104,16.94585 0,-33.89167 0,-33.89166 -29.35104,-16.94583 -29.35106,16.94583 -29.35103,-16.94583 -29.35102,-16.94583 29.35102,-16.94583 29.35103,16.94583 0,-33.89167 -29.35103,-16.94583 0,-33.89167 29.35103,-16.94582 0,33.89166 29.35106,16.94583 0,-33.89167 0,-33.89165 -29.35106,-16.94584 0,-33.89166 29.35106,-16.94584 29.35104,-16.94582 0,33.89166 -29.35104,16.94582 29.35104,16.94584 29.35102,-16.94584 0,-33.89166 29.35108,-16.94582 29.35102,-16.94584 0,33.89166 -29.35102,16.94584 29.35102,16.94582 29.35102,-16.94582 29.35107,16.94582 0,33.89168 0,33.89165 -29.35107,-16.94582 0,-33.89167 -29.35102,16.94584 0,33.89165 -29.35102,16.94584 -29.35108,-16.94584 29.35108,-16.94582 0,-33.89167 -29.35108,16.94584 -29.35102,16.94583 0,33.89166 29.35102,16.94583 0,33.89167 -29.35102,-16.94584 -29.35104,16.94584 29.35104,16.94583 29.35102,16.94583 29.35108,-16.94583 0,-33.89167 29.35102,-16.94583 29.35102,-16.94583 0,33.89166 -29.35102,16.94584 29.35102,16.94583 29.35107,-16.94583 29.35103,16.94583 0,33.89166 -29.35103,-16.94583 -29.35107,16.94583 29.35107,16.94583 29.35103,16.94583 29.35102,-16.94583 29.35108,16.94583 0,33.89167 0,33.89166 -29.35108,-16.94584 0,-33.89167 -29.35102,16.94585 0,33.89166 29.35102,16.94582 0,33.89166 0,33.89167 -29.35102,-16.94584 0,-33.89166 -29.35103,16.94583 0,33.89167 -29.35107,16.94583 -29.35102,-16.94583 -29.35102,-16.94584 29.35102,-16.94583 29.35102,16.94583 0,-33.89166 -29.35102,-16.94583 0,-33.89166 29.35102,-16.94582 0,33.89166 29.35107,16.94582 0,-33.89166 0,-33.89167 -29.35107,-16.94582 -29.35102,16.94582 -29.35102,-16.94582 29.35102,-16.94583 0,-33.89166 -29.35102,16.94583 -29.35108,16.94583 0,33.89165 29.35108,16.94585 0,33.89166 0,33.89165 -29.35108,-16.94583 0,-33.89166 -29.35102,16.94584 0,33.89165 29.35102,16.94583 0,33.89167 -29.35102,-16.94584 -29.35104,16.94584 29.35104,16.94583 29.35102,16.94583 29.35108,-16.94583 29.35102,16.94583 0,33.89167 0,33.89165 -29.35102,-16.94583 0,-33.89166 -29.35108,16.94584 0,33.89165 -29.35102,16.94583 -29.35104,-16.94583 -29.35106,-16.94583 29.35106,-16.94582 29.35104,16.94582 0,-33.89166 -29.35104,-16.94583 -29.35106,16.94583 -29.35103,-16.94583 29.35103,-16.94583 0,-33.89167 -29.35103,16.94584 -29.35102,16.94583 0,33.89166 29.35102,16.94584 0,33.89165 -29.35102,-16.94583 -29.3511,16.94583 29.3511,16.94583 29.35102,16.94584 29.35103,-16.94584 29.35106,16.94584 0,33.89164 -29.35106,-16.94582 -29.35103,16.94582 29.35103,16.94585 29.35106,16.9458 29.35104,-16.9458 0,-33.89167 29.35102,-16.94582 29.35108,-16.94584 0,33.89166 -29.35108,16.94582 29.35108,16.94585 29.35102,-16.94585 0,-33.89164 29.35102,-16.94584 0,33.89166 29.35107,16.94582 0,-33.89164 0,-33.89167 -29.35107,-16.94583 0,-33.89166 29.35107,-16.94583 29.35103,-16.94583 0,33.89166 -29.35103,16.94584 29.35103,16.94582 29.35102,-16.94582 29.35108,16.94582 0,33.89166 0,33.89166 -29.35108,-16.94582 0,-33.89167 -29.35102,16.94583 0,33.89166 29.35102,16.94582 0,33.89165 -29.35102,-16.9458 -29.35103,16.9458 29.35103,16.9459 29.35102,16.9458 29.35108,-16.9458 0,-33.8917 29.35102,-16.94585 0,33.89165 29.35102,16.9459 0,-33.8917 0,-33.89167 -29.35102,-16.94582 0,-33.89167 29.35102,-16.94583 0,33.89166 29.35104,16.94584 0,-33.89167 0,-33.89165 -29.35104,-16.94584 -29.35102,16.94584 -29.35102,-16.94584 -29.35108,-16.94583 29.35108,-16.94583 29.35102,16.94583 0,-33.89166 -29.35102,-16.94584 0,-33.89166 29.35102,-16.94583 0,33.89166 29.35102,16.94583 0,-33.89166 0,-33.89165 -29.35102,-16.94584 0,-33.89167 29.35102,-16.94582 29.35104,-16.94583 0,33.89165 -29.35104,16.94585 29.35104,16.94582 29.35103,-16.94582 29.35101,16.94582 0,33.89166 0,33.89166 -29.35101,-16.94583 0,-33.89165 -29.35103,16.94582 0,33.89166 29.35103,16.94583 0,33.89167 -29.35103,-16.94583 -29.35104,16.94583 29.35104,16.94583 29.35103,16.94583 29.35101,-16.94583 0,-33.89166 29.35108,-16.94584 0,33.89167 29.35103,16.94583 0,-33.89166 0,-33.89167 -29.35103,-16.94583 0,-33.89165 29.35103,-16.94584 0,33.89166 29.35102,16.94583 0,-33.89165 0,-33.89166 -29.35102,-16.94585 -29.35103,16.94585 -29.35108,-16.94585 -29.35101,-16.94582 29.35101,-16.94583 29.35108,16.94583 0,-33.89166 -29.35108,-16.94583 -29.35101,16.94583 -29.35103,-16.94583 29.35103,-16.94583 0,-33.89167 -29.35103,16.94584 -29.35104,16.94583 0,33.89166 -29.35102,16.94583 -29.35102,-16.94583 -29.35108,-16.94583 29.35108,-16.94583 29.35102,16.94583 0,-33.89166 -29.35102,-16.94584 -29.35108,16.94584 -29.35102,-16.94584 -29.35103,-16.94583 29.35103,-16.94583 29.35102,16.94583 0,-33.89167 -29.35102,-16.94582 0,-33.89167 29.35102,-16.94584 29.35108,-16.94582 0,33.89166 -29.35108,16.94584 29.35108,16.94583 29.35102,-16.94583 29.35102,16.94583 0,33.89166 -29.35102,-16.94584 -29.35102,16.94584 29.35102,16.94583 29.35102,16.94583 29.35104,-16.94583 0,-33.89167 29.35103,-16.94582 0,33.89166 29.35101,16.94583 0,-33.89167 0,-33.89165 -29.35101,-16.94584 -29.35103,16.94584 -29.35104,-16.94584 -29.35102,-16.94584 29.35102,-16.94582 29.35104,16.94582 0,-33.89166 -29.35104,-16.94582"
       style="fill:none;stroke:#d40000;stroke-width:3.54330709;stroke-linecap:butt;stroke-linejoin:miter;stroke-opacity:1;stroke-miterlimit:4;stroke-dasharray:none"
       inkscape:connector-curvature="0" />
  </g>
</svg>
