<?xml version="1.0" encoding="UTF-8" standalone="no"?>
<!-- Created with Inkscape (http://www.inkscape.org/) -->

<svg
   xmlns:dc="http://purl.org/dc/elements/1.1/"
   xmlns:cc="http://creativecommons.org/ns#"
   xmlns:rdf="http://www.w3.org/1999/02/22-rdf-syntax-ns#"
   xmlns:svg="http://www.w3.org/2000/svg"
   xmlns="http://www.w3.org/2000/svg"
   xmlns:sodipodi="http://sodipodi.sourceforge.net/DTD/sodipodi-0.dtd"
   xmlns:inkscape="http://www.inkscape.org/namespaces/inkscape"
   width="744.09448819"
   height="1052.3622047"
   id="svg3768"
   version="1.1"
   inkscape:version="0.48.5 r10040"
   sodipodi:docname="gosper.svg">
  <defs
     id="defs3770" />
  <sodipodi:namedview
     id="base"
     pagecolor="#ffffff"
     bordercolor="#666666"
     borderopacity="1.0"
     inkscape:pageopacity="0.0"
     inkscape:pageshadow="2"
     inkscape:zoom="0.35"
     inkscape:cx="-245"
     inkscape:cy="520"
     inkscape:document-units="px"
     inkscape:current-layer="layer1"
     showgrid="false"
     inkscape:window-width="1558"
     inkscape:window-height="912"
     inkscape:window-x="20"
     inkscape:window-y="20"
     inkscape:window-maximized="0" />
  <metadata
     id="metadata3773">
    <rdf:RDF>
      <cc:Work
         rdf:about="">
        <dc:format>image/svg+xml</dc:format>
        <dc:type
           rdf:resource="http://purl.org/dc/dcmitype/StillImage" />
        <dc:title></dc:title>
      </cc:Work>
    </rdf:RDF>
  </metadata>
  <g
     inkscape:label="Layer 1"
     inkscape:groupmode="layer"
     id="layer1">
    <path
       style="font-size:medium;font-style:normal;font-variant:normal;font-weight:normal;font-stretch:normal;text-indent:0;text-align:start;text-decoration:none;line-height:normal;letter-spacing:normal;word-spacing:normal;text-transform:none;direction:ltr;block-progression:tb;writing-mode:lr-tb;text-anchor:start;baseline-shift:baseline;color:#000000;fill:#d40000;fill-opacity:1;stroke:none;stroke-width:3.54330707;marker:none;visibility:visible;display:inline;overflow:visible;enable-background:accumulate;font-family:Sans;-inkscape-font-specification:Sans"
       d="m 332.40625,376.09375 -2.65625,1.53125 -29.34375,16.9375 -29.34375,16.96875 -0.875,0.5 0,1.03125 0,32.84375 -27.59375,15.9375 -25.8125,-14.90625 26.6875,-15.40625 0.90625,-0.5 0,-1.03125 0,-33.90625 0,-3.0625 -2.65625,1.53125 -29.375,16.96875 -29.34375,16.9375 -0.875,0.5 0,1.03125 0,33.875 0,1.03125 0.875,0.53125 28.46875,16.4375 0,32.84375 0,30.84375 -25.8125,-14.9375 0,-32.84375 0,-3.0625 L 183,496.25 l -29.34375,16.9375 -0.875,0.53125 0,1 0,33.90625 0,1.03125 0.875,0.5 28.46875,16.4375 0,29.78125 -26.6875,-15.40625 -0.90625,-0.5 -0.875,0.5 -29.34375,16.9375 -2.65625,1.5625 L 124.3125,601 153.65625,617.9375 183,634.875 l 0.90625,0.53125 0.875,-0.53125 28.46875,-16.4375 27.5625,15.90625 0,32.90625 0,30.8125 -25.78125,-14.875 0,-32.90625 0,-3.0625 -2.6875,1.53125 L 183,665.71875 l -0.875,0.5 0,1.03125 0,33.875 0,1.03125 0.875,0.5 28.46875,16.46875 0,32.84375 0,30.8125 -25.8125,-14.90625 0,-32.84375 0,-3.0625 L 183,733.5 l -29.34375,16.9375 -0.875,0.5 0,1.03125 0,32.84375 L 125.1875,800.78125 96.71875,784.3125 70.03125,768.90625 95.84375,754 l 28.46875,16.4375 2.65625,1.53125 0,-3.0625 0,-33.875 0,-1.03125 -0.90625,-0.5 -28.4375,-16.4375 0,-31.875 25.78125,-14.875 0,30.8125 0,1.03125 0.90625,0.5 29.34375,16.96875 2.65625,1.53125 0,-3.09375 0,-33.875 0,-33.90625 0,-1 -0.875,-0.53125 -29.375,-16.9375 -0.875,-0.5 -0.875,0.5 -28.46875,16.4375 -25.8125,-14.90625 26.6875,-15.40625 0.90625,-0.5 0,-1.03125 0,-33.90625 0,-3.0625 -2.65625,1.53125 -29.375,16.9375 L 36.25,614.875 l -0.875,0.5 0,1.03125 0,33.875 0,1.03125 0.875,0.5 28.46875,16.46875 0,32.84375 0,30.84375 -25.8125,-14.9375 0,-32.84375 0,-3.0625 -2.65625,1.53125 -29.34375,16.9375 1.78125,3.0625 26.6875,-15.40625 0,30.8125 0,1.03125 0.875,0.53125 29.34375,16.9375 2.65625,1.53125 0,-3.0625 0,-33.90625 0,-33.875 0,-1.03125 -0.875,-0.5 -28.46875,-16.46875 0,-31.8125 L 67.375,601 l 26.6875,-15.4375 0,29.84375 -28.46875,16.40625 -2.65625,1.53125 2.65625,1.53125 29.375,16.9375 0.875,0.53125 0.875,-0.53125 28.46875,-16.4375 27.59375,15.9375 0,32.875 0,30.8125 -25.8125,-14.875 0,-32.875 0,-3.09375 -2.65625,1.5625 -29.34375,16.9375 -0.90625,0.5 0,1.03125 0,33.875 0,1.03125 0.90625,0.53125 28.4375,16.40625 0,29.8125 -26.6875,-15.40625 -0.875,-0.5 -0.875,0.5 -29.375,16.9375 -2.65625,1.53125 2.65625,1.53125 29.375,16.96875 29.34375,16.9375 0.875,0.5 0.875,-0.5 29.375,-16.9375 0.875,-0.53125 0,-1 0,-32.875 25.8125,-14.90625 0,30.8125 0,1.03125 0.875,0.5 29.34375,16.96875 2.6875,1.53125 0,-3.0625 0,-33.90625 0,-33.90625 0,-1 -0.90625,-0.53125 -28.46875,-16.4375 0,-31.8125 25.8125,-14.9375 0,30.84375 0,1.03125 0.875,0.5 29.375,16.9375 2.65625,1.53125 0,-3.0625 0,-33.875 0,-33.90625 0,-1.03125 -0.90625,-0.5 L 214.125,614.875 213.25,614.34375 212.34375,614.875 183.875,631.3125 155.4375,614.875 128.75,599.4375 154.53125,584.53125 183,601 l 2.65625,1.53125 0,-3.0625 0,-33.90625 0,-1.03125 -0.875,-0.5 -28.46875,-16.4375 0,-31.84375 25.8125,-14.90625 0,30.84375 0,1 0.875,0.53125 29.34375,16.9375 2.6875,1.53125 0,-3.0625 0,-33.90625 0,-33.875 0,-1.03125 -0.90625,-0.5 -28.46875,-16.46875 0,-31.8125 28.46875,-16.4375 26.6875,-15.4375 0,29.84375 -28.46875,16.40625 -2.65625,1.53125 2.65625,1.53125 29.375,16.96875 0.875,0.5 0.875,-0.5 29.375,-16.96875 0.875,-0.5 0,-1.03125 0,-32.84375 28.46875,-16.46875 26.6875,-15.40625 0,29.8125 -28.46875,16.4375 L 297.75,430 l 2.65625,1.53125 29.34375,16.9375 0.90625,0.53125 0.875,-0.53125 28.46875,-16.4375 27.59375,15.9375 0,32.875 0,30.8125 -25.8125,-14.875 0,-32.90625 0,-3.0625 -2.65625,1.53125 -29.375,16.96875 -0.875,0.5 0,1.03125 0,32.84375 -27.5625,15.9375 -25.8125,-14.90625 26.6875,-15.40625 0.875,-0.5 0,-1.03125 0,-33.90625 0,-3.0625 -2.65625,1.53125 -29.34375,16.96875 -29.34375,16.9375 -0.90625,0.5 0,1.03125 0,33.90625 0,1 0.90625,0.53125 28.46875,16.4375 0,29.78125 -26.71875,-15.40625 -0.875,-0.5 -0.875,0.5 -29.375,16.9375 -2.65625,1.53125 2.65625,1.53125 29.375,16.96875 29.34375,16.9375 0.875,0.5 0.90625,-0.5 L 302.1875,601 l 0.875,-0.53125 0,-1 0,-32.875 28.46875,-16.4375 26.6875,-15.40625 0,29.8125 L 329.75,580.96875 327.09375,582.5 329.75,584.03125 359.125,601 360,601.5 360.875,601 389.34375,584.53125 416.9375,600.5 l 0,29.78125 -26.6875,-15.40625 -0.90625,-0.53125 -0.875,0.53125 -29.34375,16.9375 -2.65625,1.53125 2.65625,1.53125 29.34375,16.9375 29.34375,16.96875 0.875,0.5 0.90625,-0.5 28.46875,-16.46875 27.5625,15.9375 0,32.875 0,30.84375 -25.8125,-14.9375 0,-32.84375 0,-3.0625 -2.65625,1.53125 -29.34375,16.9375 -0.875,0.5 0,1.03125 0,33.90625 0,1 0.875,0.53125 28.46875,16.4375 0,32.875 0,30.8125 -25.8125,-14.90625 0,-32.875 0,-3.0625 -2.65625,1.53125 -29.34375,16.9375 -0.875,0.53125 0,1.03125 0,32.84375 -27.59375,15.9375 -28.46875,-16.4375 -26.6875,-15.40625 25.8125,-14.90625 28.46875,16.4375 2.65625,1.53125 0,-3.0625 0,-33.90625 0,-1 -0.90625,-0.53125 -28.46875,-16.4375 0,-31.8125 25.8125,-14.9375 0,30.84375 0,1 0.90625,0.53125 29.34375,16.9375 2.65625,1.53125 0,-3.0625 0,-33.90625 0,-33.875 0,-1.03125 -0.875,-0.5 -29.375,-16.9375 -0.875,-0.53125 -0.875,0.53125 -28.46875,16.4375 -25.8125,-14.90625 26.6875,-15.4375 0.875,-0.5 0,-1.03125 0,-33.875 0,-3.0625 -2.65625,1.53125 -29.34375,16.9375 -29.34375,16.9375 -0.875,0.53125 0,1 0,33.90625 0,1.03125 0.875,0.5 28.46875,16.4375 0,32.875 0,30.8125 -25.8125,-14.90625 0,-32.875 0,-3.0625 -2.65625,1.53125 -29.34375,16.96875 -0.90625,0.5 0,1.03125 0,33.875 0,1.03125 0.90625,0.5 28.46875,16.46875 0,29.78125 -26.71875,-15.40625 -0.875,-0.53125 -0.875,0.53125 -29.375,16.9375 -2.65625,1.53125 2.65625,1.53125 29.375,16.9375 29.34375,16.96875 0.875,0.5 0.90625,-0.5 28.46875,-16.46875 27.5625,15.96875 0,32.84375 0,30.84375 -25.8125,-14.9375 0,-32.84375 0,-3.0625 -2.65625,1.53125 L 271.0625,886 l -0.875,0.5 0,1.03125 0,32.875 -27.59375,15.9375 L 214.125,919.90625 187.4375,904.46875 213.25,889.5625 241.71875,906 l 2.65625,1.5625 0,-3.09375 0,-33.875 0,-1.03125 -0.90625,-0.5 -29.34375,-16.96875 -0.875,-0.5 -0.90625,0.5 -28.46875,16.46875 -25.75,-14.9375 26.65625,-15.40625 0.875,-0.5 0,-1.03125 0,-33.875 0,-3.0625 -2.65625,1.53125 -29.34375,16.9375 -29.34375,16.9375 -0.90625,0.53125 0,1 0,33.90625 0,1.03125 0.90625,0.5 28.46875,16.4375 0,29.8125 -26.71875,-15.4375 -0.875,-0.5 -0.875,0.5 -29.34375,16.96875 -2.65625,1.53125 2.65625,1.53125 29.34375,16.9375 29.34375,16.9375 0.875,0.53125 0.90625,-0.53125 28.4375,-16.4375 27.59375,15.9375 0,29.8125 -26.6875,-15.4375 -0.875,-0.5 -0.90625,0.5 L 153.65625,987.6875 151,989.21875 153.65625,990.75 183,1007.6875 l 29.34375,16.9375 0.90625,0.5312 0.875,-0.5312 29.34375,-16.9375 0.90625,-0.5 0,-1.0313 0,-32.87495 28.46875,-16.4375 26.6875,-15.40625 0,29.78125 -28.46875,16.46875 -2.65625,1.53125 2.65625,1.53125 29.34375,16.9375 0.90625,0.5 0.875,-0.5 29.34375,-16.9375 0.875,-0.53125 0,-1 0,-32.875 25.8125,-14.90625 0,30.8125 0,1.03125 0.90625,0.53125 29.34375,16.9375 2.65625,1.53125 0,-3.0625 0,-33.90625 0,-33.875 0,-1.03125 -0.875,-0.5 -28.46875,-16.4375 0,-31.875 28.46875,-16.40625 26.6875,-15.4375 0,29.8125 -28.46875,16.4375 -2.65625,1.53125 2.65625,1.53125 29.34375,16.9375 0.875,0.53125 0.90625,-0.53125 28.46875,-16.4375 27.5625,15.90625 0,32.90625 0,30.8125 -25.8125,-14.90625 0,-32.84375 0,-3.09375 -2.65625,1.5625 -29.34375,16.9375 -0.875,0.5 0,1.03125 0,33.875 0,1.03125 0.875,0.53125 28.46875,16.4375 0,29.7812 -26.6875,-15.4062 -0.90625,-0.5 -0.875,0.5 -29.34375,16.9375 -2.65625,1.5313 2.65625,1.5312 29.34375,16.9688 29.34375,16.9374 0.90625,0.5 0.875,-0.5 29.34375,-16.9374 0.90625,-0.5313 0,-1 0,-32.9063 25.78125,-14.8437 0,30.7813 0,1.0312 0.90625,0.5 29.34375,16.9688 2.65625,1.5312 0,-3.0625 0,-33.9063 0,-33.9062 0,-1 -0.875,-0.53125 -28.46875,-16.4375 0,-31.8125 25.8125,-14.9375 0,30.84375 0,1.03125 0.875,0.5 29.34375,16.9375 2.65625,1.53125 0,-3.0625 0,-33.875 0,-33.90625 0,-1.03125 -0.875,-0.5 L 537,869.0625 l -0.90625,-0.53125 -0.875,0.53125 L 506.75,885.5 478.28125,869.0625 451.625,853.625 l 25.78125,-14.90625 28.46875,16.46875 2.65625,1.53125 0,-3.0625 0,-33.90625 0,-1.03125 -0.875,-0.5 -28.46875,-16.40625 0,-31.90625 25.78125,-14.84375 0,30.8125 0,1 0.90625,0.53125 29.34375,16.9375 2.65625,1.53125 0,-3.0625 0,-33.90625 0,-33.875 0,-1.03125 -0.875,-0.5 -28.46875,-16.46875 0,-31.8125 28.46875,-16.4375 26.6875,-15.4375 0,29.8125 -28.46875,16.4375 -2.65625,1.53125 2.65625,1.53125 29.34375,16.96875 0.90625,0.5 0.875,-0.5 28.46875,-16.46875 27.5625,15.9375 0,32.875 0,30.8125 -25.78125,-14.875 0,-32.875 0,-3.0625 -2.65625,1.53125 -29.375,16.9375 -0.875,0.5 0,1.03125 0,33.90625 0,1 0.875,0.53125 28.46875,16.40625 0,29.8125 -26.6875,-15.40625 -0.875,-0.5 -0.90625,0.5 -29.34375,16.9375 -2.65625,1.53125 2.65625,1.53125 29.34375,16.96875 29.375,16.9375 0.875,0.5 0.875,-0.5 29.34375,-16.9375 0.90625,-0.53125 0,-1 0,-32.90625 25.8125,-14.875 0,30.8125 0,1.03125 0.875,0.5 29.34375,16.96875 2.65625,1.53125 0,-3.0625 0,-33.90625 0,-33.875 0,-1.03125 -0.875,-0.53125 -28.46875,-16.4375 0,-31.8125 25.8125,-14.90625 0,30.8125 0,1.03125 0.875,0.5 29.34375,16.9375 2.65625,1.53125 0,-3.0625 0,-33.875 0,-33.90625 0,-1.03125 -0.875,-0.5 -29.34375,-16.9375 -0.875,-0.53125 -0.90625,0.53125 -28.46875,16.4375 -28.46875,-16.4375 -26.6875,-15.40625 25.8125,-14.9375 28.46875,16.46875 2.65625,1.53125 0,-3.0625 0,-33.90625 0,-1.03125 -0.875,-0.5 -29.375,-16.9375 -0.875,-0.53125 -0.875,0.53125 L 594.8125,631.3125 569,616.40625 595.6875,601 l 0.90625,-0.53125 0,-1 0,-33.90625 0,-3.0625 -2.65625,1.53125 -29.375,16.9375 -29.34375,16.9375 -0.875,0.53125 0,1.03125 0,32.84375 L 506.75,648.25 478.28125,631.8125 451.59375,616.40625 477.40625,601.5 l 28.46875,16.4375 2.65625,1.53125 0,-3.0625 0,-33.90625 0,-1 -0.875,-0.53125 -29.375,-16.9375 -0.875,-0.5 -0.875,0.5 -28.46875,16.4375 -28.46875,-16.4375 -26.6875,-15.40625 25.78125,-14.90625 28.46875,16.4375 2.65625,1.53125 0,-3.0625 0,-33.90625 0,-1 -0.875,-0.53125 -28.46875,-16.4375 0,-31.8125 28.46875,-16.46875 26.6875,-15.40625 0,29.8125 -28.46875,16.4375 -2.65625,1.53125 2.65625,1.53125 29.375,16.9375 0.875,0.5 0.875,-0.5 28.46875,-16.4375 27.59375,15.9375 0,29.78125 -26.6875,-15.40625 -0.90625,-0.5 -0.875,0.5 -29.34375,16.9375 -2.65625,1.5625 2.65625,1.53125 29.34375,16.9375 29.34375,16.9375 0.875,0.53125 0.90625,-0.53125 29.34375,-16.9375 0.875,-0.5 0,-1.03125 0,-32.875 25.8125,-14.90625 0,30.84375 0,1 0.90625,0.53125 29.34375,16.9375 2.65625,1.53125 0,-3.0625 0,-33.90625 0,-33.875 0,-1.03125 -0.90625,-0.5 -29.34375,-16.96875 -0.875,-0.5 -0.875,0.5 L 565.46875,478.8125 537,462.34375 510.3125,446.9375 l 25.8125,-14.90625 28.4375,16.4375 2.65625,1.53125 0,-3.0625 0,-33.875 0,-1.03125 -0.875,-0.5 L 537,394.5625 l -1.78125,3.0625 28.46875,16.46875 0,29.78125 L 537,428.46875 l -0.90625,-0.53125 -0.875,0.53125 -29.34375,16.9375 -2.65625,1.53125 2.65625,1.53125 29.34375,16.96875 29.34375,16.9375 0.90625,0.5 0.875,-0.5 28.46875,-16.4375 27.5625,15.90625 0,32.875 0,30.84375 -25.78125,-14.90625 0,-32.875 0,-3.0625 -2.65625,1.53125 -29.375,16.9375 -0.875,0.53125 0,1 0,32.875 -27.5625,15.9375 -28.46875,-16.4375 -26.6875,-15.40625 25.78125,-14.9375 28.46875,16.46875 2.65625,1.53125 0,-3.0625 0,-33.90625 0,-1.03125 -0.875,-0.5 -29.34375,-16.9375 -0.90625,-0.53125 -0.875,0.53125 -28.46875,16.4375 -25.8125,-14.90625 26.6875,-15.40625 0.90625,-0.53125 0,-1.03125 0,-33.875 0,-3.0625 -2.65625,1.53125 -29.375,16.9375 -29.34375,16.9375 -0.875,0.53125 0,1 0,33.90625 0,1.03125 0.875,0.5 28.46875,16.4375 0,29.8125 -26.6875,-15.4375 -0.90625,-0.5 -0.875,0.5 -29.34375,16.96875 -2.65625,1.53125 2.65625,1.53125 29.34375,16.9375 29.34375,16.9375 0.90625,0.53125 0.875,-0.53125 28.46875,-16.4375 27.5625,15.90625 0,29.8125 -26.6875,-15.40625 -0.875,-0.5 -0.875,0.5 -29.375,16.96875 -2.65625,1.53125 2.65625,1.53125 29.375,16.9375 29.34375,16.9375 0.875,0.53125 0.90625,-0.53125 L 537,634.875 l 0.875,-0.5 0,-1.03125 0,-32.84375 28.46875,-16.46875 26.6875,-15.40625 0,29.8125 -28.46875,16.4375 -2.65625,1.53125 2.65625,1.53125 29.375,16.9375 0.875,0.53125 0.875,-0.53125 28.46875,-16.4375 27.59375,15.9375 0,29.8125 -26.71875,-15.4375 -0.875,-0.5 -0.875,0.5 -29.34375,16.96875 -2.6875,1.53125 2.6875,1.53125 29.34375,16.9375 29.34375,16.9375 0.875,0.53125 0.90625,-0.53125 28.46875,-16.4375 27.5625,15.9375 0,32.875 0,30.8125 -25.8125,-14.90625 0,-32.875 0,-3.0625 -2.65625,1.53125 L 652.625,733.5 l -0.875,0.5 0,1.03125 0,33.875 0,1.03125 0.875,0.5 28.46875,16.46875 0,32.84375 0,30.8125 -25.8125,-14.90625 0,-32.84375 0,-3.0625 -2.65625,1.53125 -29.34375,16.9375 -0.90625,0.5 0,1.03125 0,32.875 -27.5625,15.9375 -28.46875,-16.46875 -26.6875,-15.40625 25.8125,-14.90625 28.46875,16.4375 2.65625,1.5625 0,-3.09375 0,-33.875 0,-1.03125 -0.90625,-0.5 -28.46875,-16.46875 0,-31.8125 25.8125,-14.90625 0,30.8125 0,1.03125 0.90625,0.5 29.34375,16.96875 2.65625,1.53125 0,-3.0625 0,-33.90625 0,-33.90625 0,-1 -0.90625,-0.53125 -29.34375,-16.9375 -0.875,-0.5 -0.875,0.5 -28.46875,16.4375 -25.8125,-14.90625 26.6875,-15.40625 0.875,-0.5 0,-1.03125 0,-33.90625 0,-3.0625 -2.65625,1.53125 -29.34375,16.96875 -29.34375,16.9375 -0.90625,0.5 0,1.03125 0,33.875 0,1.03125 0.90625,0.53125 28.46875,16.4375 0,32.84375 0,30.84375 -25.8125,-14.9375 0,-32.84375 0,-3.0625 -2.65625,1.53125 -29.34375,16.9375 -0.90625,0.53125 0,1 0,33.90625 0,1.03125 0.90625,0.5 28.4375,16.40625 0,29.78125 -26.6875,-15.375 -0.875,-0.5 -0.875,0.5 -29.375,16.9375 -2.65625,1.5625 2.65625,1.53125 29.375,16.9375 29.34375,16.9375 0.875,0.53125 0.90625,-0.53125 28.46875,-16.4375 27.5625,15.9375 0,32.875 0,30.8125 -25.8125,-14.90625 0,-32.875 0,-3.0625 -2.65625,1.53125 -29.34375,16.96875 -0.90625,0.5 0,1.03125 0,33.875 0,1.03125 0.90625,0.5 28.46875,16.46875 0,32.8437 0,30.8126 -25.8125,-14.9063 0,-32.84375 0,-3.0625 -2.65625,1.53125 -29.34375,16.9375 -0.90625,0.5 0,1.0312 0,32.875 -27.5625,15.9376 -28.46875,-16.4688 -26.6875,-15.4062 25.78125,-14.9063 28.46875,16.4375 2.65625,1.5312 0,-3.0624 0,-33.87505 0,-1.03125 -0.875,-0.5 -28.46875,-16.46875 0,-31.8125 25.8125,-14.90625 0,30.8125 0,1.03125 0.875,0.5 29.375,16.96875 2.65625,1.53125 0,-3.09375 0,-33.875 0,-33.90625 0,-1 -0.90625,-0.53125 L 448.9375,886 l -0.875,-0.5 -0.90625,0.5 -28.46875,16.4375 -25.78125,-14.90625 26.6875,-15.40625 0.875,-0.5 0,-1.03125 0,-33.90625 0,-3.0625 -2.65625,1.53125 -29.34375,16.9375 -29.34375,16.96875 -0.90625,0.5 0,1.03125 0,33.875 0,1.03125 0.90625,0.5 28.46875,16.46875 0,32.84375 0,30.84375 -25.8125,-14.90625 0,-32.875 0,-3.0625 -2.65625,1.53125 -29.375,16.9375 -0.875,0.5 0,1.03125 0,32.875 -27.5625,15.9375 -25.8125,-14.90625 26.6875,-15.40625 0.875,-0.53125 0,-1.03125 0,-33.875 0,-3.0625 -2.65625,1.53125 -29.34375,16.9375 -29.34375,16.9375 -0.90625,0.53125 0,1 0,32.9062 -27.5625,15.9063 -28.46875,-16.4375 -26.6875,-15.40625 25.78125,-14.90625 28.46875,16.4375 2.6875,1.53125 0,-3.0625 0,-33.90625 0,-1.03125 -0.90625,-0.5 -29.34375,-16.9375 -0.875,-0.53125 L 183,936.84375 154.53125,953.28125 126.0625,936.84375 99.375,921.4375 125.1875,906.5 l 28.46875,16.46875 2.65625,1.53125 0,-3.0625 0,-33.90625 0,-1.03125 -0.875,-0.5 -28.46875,-16.40625 0,-31.90625 28.46875,-16.40625 26.6875,-15.40625 0,29.78125 -28.46875,16.4375 -2.65625,1.5625 2.65625,1.53125 L 183,872.125 l 0.90625,0.5 0.875,-0.5 28.46875,-16.4375 27.5625,15.90625 0,29.8125 L 214.125,886 213.25,885.5 212.34375,886 183,902.9375 180.34375,904.46875 183,906 l 29.34375,16.96875 29.375,16.9375 0.875,0.5 0.875,-0.5 29.375,-16.9375 0.875,-0.53125 0,-1 0,-32.875 25.8125,-14.90625 0,30.8125 0,1.03125 0.875,0.5 29.34375,16.96875 2.65625,1.53125 0,-3.0625 0,-33.90625 0,-33.875 0,-1.03125 -0.875,-0.53125 -29.34375,-16.9375 -0.875,-0.5 -0.90625,0.5 -28.46875,16.4375 -28.46875,-16.4375 -26.6875,-15.40625 25.8125,-14.90625 28.46875,16.4375 2.65625,1.53125 0,-3.0625 0,-33.875 0,-1.03125 -0.875,-0.53125 -28.46875,-16.40625 0,-31.875 25.8125,-14.875 0,30.8125 0,1.03125 0.875,0.5 29.34375,16.9375 2.65625,1.53125 0,-3.0625 0,-33.875 0,-33.90625 0,-1.03125 -0.875,-0.5 -28.46875,-16.4375 0,-31.84375 28.46875,-16.4375 26.6875,-15.40625 0,29.78125 -28.46875,16.46875 -2.65625,1.53125 2.65625,1.53125 29.34375,16.9375 0.90625,0.5 0.875,-0.5 28.46875,-16.4375 27.59375,15.9375 0,32.84375 0,30.84375 -25.8125,-14.875 0,-32.90625 0,-3.0625 -2.65625,1.53125 -29.375,16.9375 -0.875,0.53125 0,1 0,33.90625 0,1.03125 0.875,0.5 28.46875,16.40625 0,29.84375 -26.6875,-15.4375 -0.875,-0.5 -0.90625,0.5 -29.34375,16.96875 -2.65625,1.53125 2.65625,1.53125 29.34375,16.9375 29.375,16.9375 0.875,0.53125 0.875,-0.53125 29.375,-16.9375 0.875,-0.5 0,-1.03125 0,-32.84375 25.8125,-14.9375 0,30.84375 0,1.03125 0.875,0.5 29.34375,16.9375 2.65625,1.53125 0,-3.0625 0,-33.875 0,-33.90625 0,-1.03125 -0.875,-0.5 L 420.46875,734 l 0,-31.84375 25.8125,-14.90625 0,30.8125 0,1.03125 0.875,0.53125 29.375,16.9375 2.65625,1.53125 0,-3.0625 0,-33.90625 0,-33.875 0,-1.03125 -0.90625,-0.5 -29.34375,-16.96875 -0.875,-0.5 -0.90625,0.5 L 418.6875,665.21875 390.25,648.75 l -26.71875,-15.40625 25.8125,-14.90625 28.46875,16.4375 2.65625,1.53125 0,-3.0625 0,-33.875 0,-1.03125 -0.875,-0.53125 -29.34375,-16.9375 -0.90625,-0.5 -0.875,0.5 L 360,597.40625 334.1875,582.5 l 26.6875,-15.40625 0.90625,-0.5 0,-1.03125 0,-33.875 0,-3.09375 -2.65625,1.53125 -29.375,16.96875 -29.34375,16.9375 -0.875,0.5 0,1.03125 0,32.84375 L 271.9375,614.375 243.46875,597.90625 216.78125,582.5 l 25.8125,-14.90625 28.46875,16.4375 2.65625,1.5625 0,-3.09375 0,-33.875 0,-1.03125 -0.875,-0.5 -28.46875,-16.4375 0,-31.875 28.46875,-16.40625 26.6875,-15.40625 0,29.78125 -28.46875,16.4375 -2.65625,1.53125 2.65625,1.53125 29.34375,16.96875 0.90625,0.5 0.875,-0.5 29.34375,-16.96875 0.875,-0.5 0,-1.03125 0,-32.84375 25.8125,-14.90625 0,30.8125 0,1.03125 0.90625,0.5 29.34375,16.9375 2.65625,1.53125 0,-3.0625 0,-33.875 0,-33.90625 0,-1.03125 -0.875,-0.5 -29.375,-16.9375 -0.875,-0.53125 -0.875,0.53125 -28.46875,16.4375 L 304.84375,430 l 26.6875,-15.40625 0.875,-0.53125 0,-1 0,-33.90625 0,-3.0625 z"
       id="path2971"
       inkscape:connector-curvature="0" />
  </g>
</svg>
