<?xml version="1.0" encoding="UTF-8" standalone="no"?>
<!-- Generator: Adobe Illustrator 18.1.1, SVG Export Plug-In . SVG Version: 6.00 Build 0)  -->

<svg
   xmlns:dc="http://purl.org/dc/elements/1.1/"
   xmlns:cc="http://creativecommons.org/ns#"
   xmlns:rdf="http://www.w3.org/1999/02/22-rdf-syntax-ns#"
   xmlns:svg="http://www.w3.org/2000/svg"
   xmlns="http://www.w3.org/2000/svg"
   xmlns:sodipodi="http://sodipodi.sourceforge.net/DTD/sodipodi-0.dtd"
   xmlns:inkscape="http://www.inkscape.org/namespaces/inkscape"
   version="1.1"
   id="Layer_1"
   x="0px"
   y="0px"
   viewBox="0 0 566.9 566.9"
   enable-background="new 0 0 566.9 566.9"
   xml:space="preserve"
   inkscape:version="0.48.5 r10040"
   width="100%"
   height="100%"
   sodipodi:docname="Hilbert.svg"><metadata
     id="metadata2993"><rdf:RDF><cc:Work
         rdf:about=""><dc:format>image/svg+xml</dc:format><dc:type
           rdf:resource="http://purl.org/dc/dcmitype/StillImage" /></cc:Work></rdf:RDF></metadata><defs
     id="defs2991" /><sodipodi:namedview
     pagecolor="#ffffff"
     bordercolor="#666666"
     borderopacity="1"
     objecttolerance="10"
     gridtolerance="10"
     guidetolerance="10"
     inkscape:pageopacity="0"
     inkscape:pageshadow="2"
     inkscape:window-width="1063"
     inkscape:window-height="733"
     id="namedview2989"
     showgrid="false"
     inkscape:zoom="0.97195273"
     inkscape:cx="283.45"
     inkscape:cy="283.45"
     inkscape:window-x="0"
     inkscape:window-y="0"
     inkscape:window-maximized="0"
     inkscape:current-layer="Layer_1" /><path
     style="fill:none;stroke:#d0393c;stroke-width:3.54330694;stroke-miterlimit:4;stroke-dasharray:none"
     inkscape:connector-curvature="0"
     d="m 0,566.1 v -18.3 h 18.3 v 18.3 H 54.8 V 547.8 H 36.5 V 529.5 H 54.8 V 511.2 H 18.3 v 18.3 H 0 V 493 H 18.3 V 474.7 H 0 v -36.5 h 18.3 v 18.3 h 18.3 v -18.3 h 18.3 v 36.5 H 36.5 V 493 H 91.3 V 474.7 H 73 v -36.5 h 18.3 v 18.3 h 18.3 v -18.3 h 18.3 v 36.5 H 109.6 V 493 h 18.3 v 36.5 H 109.6 V 511.2 H 73 v 18.3 h 18.3 v 18.3 H 73 v 18.3 h 36.5 v -18.3 h 18.3 v 18.3 h 36.5 V 547.8 H 146 v -36.5 h 18.3 v 18.3 h 18.3 v -18.3 h 18.3 v 36.5 h -18.3 v 18.3 h 36.5 v -18.3 h 18.3 v 18.3 h 36.5 v -18.3 h -18.3 v -18.3 h 18.3 v -18.3 h -36.5 v 18.3 h -18.3 v -54.8 h 18.3 V 493 h 36.5 v -18.3 h -18.3 v -18.3 h 18.3 v -18.3 h -36.5 v 18.3 h -18.3 v -18.3 h -36.5 v 18.3 h 18.3 v 36.5 h -18.3 v -18.3 h -18.3 v 18.3 H 146 v -36.5 h 18.3 V 438.1 H 146 V 420 h 18.3 V 401.7 H 146 v -36.5 h 18.3 v 18.3 h 18.3 v -18.3 h 18.3 v 36.5 H 182.6 V 420 h 36.5 v -18.3 h 18.3 V 420 h 36.5 v -18.3 h -18.3 v -18.3 h 18.3 v -18.3 h -36.5 v 18.3 h -18.3 v -54.8 h 18.3 V 347 h 36.5 v -18.3 h -18.3 v -18.3 h 18.3 v -18.3 h -36.5 v 18.3 h -18.3 v -18.3 h -36.5 v 18.3 h 18.3 V 347 H 182.6 V 328.7 H 164.3 V 347 H 146 v -36.5 h 18.3 v -18.3 h -36.5 v 18.3 H 109.5 V 292.2 H 73 v 18.3 h 18.3 v 18.3 H 73 V 347 h 36.5 v -18.3 h 18.3 v 36.5 h -18.3 v 18.3 h 18.3 V 420 H 109.5 V 401.7 H 91.3 V 420 H 73 V 383.5 H 91.3 V 365.2 H 36.5 v 18.3 H 54.8 V 420 H 36.5 V 401.7 H 18.3 V 420 H 0 V 383.5 H 18.3 V 365.2 H 0 V 328.7 H 18.3 V 347 H 54.8 V 328.7 H 36.5 V 310.4 H 54.8 V 292.1 H 18.3 v 18.3 H 0 V 273.9 H 18.3 V 255.6 H 0 v -36.5 h 18.3 v 18.3 h 18.3 v -18.3 h 18.3 v 36.5 H 36.5 v 18.3 H 73 v -18.3 h 18.3 v 18.3 h 36.5 v -18.3 h -18.3 v -18.3 h 18.3 V 219 H 91.3 v 18.3 H 73 v -54.8 h 18.3 v 18.3 h 36.5 v -18.3 h -18.3 v -18.3 h 18.3 V 145.9 H 91.3 v 18.3 H 73 V 145.9 H 36.5 v 18.3 h 18.3 v 36.5 H 36.5 V 182.4 H 18.3 v 18.3 H 0 V 164.2 H 18.3 V 145.9 H 0 v -36.5 h 18.3 v 18.3 H 54.8 V 109.4 H 36.5 V 91.3 H 54.8 V 73 H 18.3 V 91.3 H 0 V 54.8 H 18.3 V 36.5 H 0 V 0 H 18.3 V 18.3 H 36.6 V 0 H 54.9 V 36.5 H 36.5 V 54.8 H 91.3 V 36.5 H 73 V 0 h 18.3 v 18.3 h 18.3 V 0 h 18.3 v 36.5 h -18.3 v 18.3 h 18.3 V 91.3 H 109.6 V 73 H 73 v 18.3 h 18.3 v 18.3 H 73 v 18.3 h 36.5 v -18.3 h 18.3 v 18.3 h 18.3 v -18.3 h 18.3 v 18.3 h 36.5 V 109.6 H 182.6 V 91.3 h 18.3 V 73 H 164.4 V 91.3 H 146.1 V 54.8 h 18.3 V 36.5 H 146.1 V 0 h 18.3 v 18.3 h 18.3 V 0 H 201 v 36.5 h -18.3 v 18.3 h 54.8 V 36.5 H 219.2 V 0 h 18.3 v 18.3 h 18.3 V 0 h 18.3 v 36.5 h -18.3 v 18.3 h 18.3 V 91.3 H 255.8 V 73 h -36.5 v 18.3 h 18.3 v 18.3 h -18.3 v 18.3 h 36.5 v -18.3 h 18.3 v 36.5 h -18.3 v 18.3 h 18.3 v 36.5 h -18.3 v -18.3 h -18.3 v 18.3 h -18.3 v -36.5 h 18.3 V 146.1 H 201 v 18.3 h -18.3 v -18.3 h -36.5 v 18.3 h 18.3 v 18.3 H 146.2 V 201 h 36.5 V 182.7 H 201 v 54.8 h -18.3 v -18.3 h -36.5 v 18.3 h 18.3 v 18.3 h -18.3 v 18.3 h 18.3 18.3 v -18.3 h 18.3 v 18.3 h 36.5 v -18.3 h -18.3 v -36.5 h 18.3 v 18.3 h 18.3 v -18.3 h 18.3 v 36.5 h -18.3 v 18.3 h 54.8 v -18.3 h -18.3 v -36.5 h 18.3 v 18.3 H 329 v -18.3 h 18 v 36.5 h -18.3 v 18.3 h 36.5 v -18.3 h 18.3 v 18.3 H 420 V 255.8 H 401.7 V 237.5 H 420 v -18.3 h -36.5 v 18.3 h -18.3 v -54.8 h 18.3 V 201 H 420 V 182.7 H 401.7 V 164.4 H 420 v -18.3 h -36.5 v 18.3 h -18.3 v -18.3 h -36.5 v 18.3 H 347 v 36.5 h -18.3 v -18.3 h -18.3 v 18.3 h -18.3 v -36.5 h 18.3 v -18.3 h -18.3 v -36.5 h 18.3 v 18.3 H 347 V 109.6 H 328.7 V 91.3 H 347 V 73 H 310.5 V 91.3 H 292.2 V 54.8 h 18.3 V 36.5 H 292.2 V 0 h 18.3 v 18.3 c 0,0 0,0 9.1,0 h 9.1 V 0 H 347 v 36.5 h -18.3 v 18.3 h 54.8 V 36.5 H 365.2 V 0 h 18.3 v 18.3 h 18.3 V 0 H 420 V 36.5 H 401.7 V 54.8 H 420 V 91.3 H 401.7 V 73 h -36.5 v 18.3 h 18.3 v 18.3 h -18.3 v 18.3 h 36.5 V 109.6 H 420 v 18.3 h 18.3 v -18.3 h 18.3 v 18.3 h 36.5 V 109.6 H 474.8 V 91.3 h 18.3 V 73 H 456.6 V 91.3 H 438.3 V 54.8 h 18.3 V 36.5 H 438.3 V 0 h 18.3 v 18.3 h 18.3 V 0 h 18.3 v 36.5 h -18.3 v 18.3 h 54.8 V 36.5 H 511.4 V 0 h 18.3 V 18.3 H 548 V 0 h 18.3 V 36.5 H 548 v 18.3 h 18.3 V 91.3 H 548 V 73 h -36.5 v 18.3 h 18.3 v 18.3 h -18.3 v 18.3 H 548 v -18.3 h 18.3 v 36.5 H 548 v 18.3 h 18.3 v 36.5 H 548 v -18.3 h -18.3 v 18.3 h -18.3 v -36.5 h 18.3 v -18.3 h -36.5 v 18.3 h -18.3 v -18.3 h -36.5 v 18.3 h 18.3 v 18.3 H 438.4 V 201 h 36.5 v -18.3 h 18.3 v 54.8 h -18.3 v -18.3 h -36.5 v 18.3 h 18.3 v 18.3 h -18.3 v 18.3 h 36.5 v -18.3 h 18.3 v 18.3 h 36.5 v -18.3 h -18.3 v -36.5 h 18.3 v 18.3 H 548 v -18.3 h 18.3 v 36.5 H 548 v 18.3 h 18.3 v 36.5 H 548 v -18.3 h -36.5 v 18.3 h 18.3 v 18.3 H 511.5 V 347 H 548 v -18.3 h 18.3 v 36.5 H 548 v 18.3 h 18.3 V 420 H 548 V 401.7 H 529.7 V 420 h -18.3 v -36.5 h 18.3 v -18.3 h -54.8 v 18.3 h 18.3 V 420 H 474.9 V 401.7 H 456.6 V 420 h -18.3 v -36.5 h 18.3 v -18.3 h -18.3 v -36.5 h 18.3 V 347 h 36.5 v -18.3 h -18.3 v -18.3 h 18.3 v -18.3 h -36.5 v 18.3 h -18.3 v -18.3 h -36.5 v 18.3 H 420 V 347 H 401.7 V 328.7 H 383.4 V 347 h -18.3 v -36.5 h 18.3 V 292.2 H 347 v 18.3 h -18.3 v -18.3 h -36.5 v 18.3 h 18.3 v 18.3 H 292.2 V 347 h 36.5 V 328.7 H 347 v 54.8 h -18.3 v -18.3 h -36.5 v 18.3 h 18.3 v 18.3 H 292.2 V 420 h 36.5 V 401.7 H 347 V 420 h 36.5 v -18.3 h -18.3 v -36.5 h 18.3 v 18.3 h 18.3 V 365.2 H 420 v 36.5 H 401.7 V 420 H 420 v 18.3 h -18.3 v 18.3 H 420 v 36.5 h -18.3 v -18.3 h -18.3 v 18.3 h -18.3 v -36.5 h 18.3 V 438.3 H 347 v 18.3 h -18.3 v -18.3 h -36.5 v 18.3 h 18.3 v 18.3 h -18.3 v 18.3 h 36.5 V 474.9 H 347 v 54.8 h -18.3 v -18.3 h -36.5 v 18.3 h 18.3 V 548 h -18.3 v 18.3 h 36.5 V 548 H 347 v 18.3 h 36.5 V 548 h -18.3 v -36.5 h 18.3 v 18.3 h 18.3 V 511.5 H 420 V 548 h -18.3 v 18.3 h 36.5 V 548 h 18.3 v 18.3 H 493 V 548 H 474.7 V 529.7 H 493 v -18.3 h -36.5 v 18.3 h -18.3 v -36.5 h 18.3 v -18.3 h -18.3 v -36.5 h 18.3 v 18.3 h 18.3 v -18.3 h 18.3 v 36.5 h -18.3 v 18.3 h 54.8 v -18.3 h -18.3 v -36.5 h 18.3 v 18.3 h 18.3 v -18.3 h 18.3 v 36.5 h -18.3 v 18.3 h 18.3 v 36.5 h -18.3 v -18.3 h -36.5 v 18.3 h 18.3 V 548 h -18.3 v 18.3 h 36.5 V 548 h 18.3 v 18.3"
     sodipodi:nodetypes="cccccccccccccccccccccccccccccccccccccccccccccccccccccccccccccccccccccccccccccccccccccccccccccccccccccccccccccccccccccccccccccccccccccccccccccccccccccccccccccccccccccccccccccccccccccccccccccccccccccccccccccccccccccccccccccccccccccccccccccccccccccccccccccccccccccccccccccccccccccccccccccccccccccccccccccccccccccccccccccccccccccccccccccccccccccccccccccccccccccccccccccccccccccccccccccccccccccccccccccccccccccccccccccccccccccccccccccccccccccccccccccccccccccccccccccccccccccccccccccccccccccccccccccccccccccccccccccccccccccccccccccccccccccccccccccccccccccccccccccccccccccc"
     id="path4936" /></svg>